<svg viewBox="0 0 32 32" xmlns="http://www.w3.org/2000/svg" aria-label="Navigate to Facebook" role="img" focusable="false" style="display: block; height: 18px; width: 18px; fill: currentcolor;"><path d="m30 0c.5304 0 1.0391.210714 1.4142.585786.3751.375073.5858.883784.5858 1.414214v28c0 .5304-.2107 1.0391-.5858 1.4142s-.8838.5858-1.4142.5858h-28c-.53043 0-1.039141-.2107-1.414214-.5858-.375072-.3751-.585786-.8838-.585786-1.4142v-28c0-.53043.210714-1.039141.585786-1.414214.375073-.375072.883784-.585786 1.414214-.585786z"></path><path d="m22.9375 16h-4.438v-3.001c0-1.266.62-2.499 2.607-2.499h2.018v-3.938s-1.831-.312-3.582-.312c-3.654 0-6.043 2.215-6.043 6.225v3.525h-4.06298v4.625h4.06298v11.375h5v-11.375h3.728z" fill="#fff"></path></svg>