<svg viewBox="0 0 32 32" xmlns="http://www.w3.org/2000/svg" aria-label="Navigate to Instagram" role="img" focusable="false" style="display: block; height: 18px; width: 18px; fill: currentcolor;"><path d="m30 0h-28c-1.10457 0-2 .89543-2 2v28c0 1.1046.89543 2 2 2h28c1.1046 0 2-.8954 2-2v-28c0-1.10457-.8954-2-2-2z"></path><path d="m15.714 4h1.244c2.399.003 2.847.02 3.99.072 1.277.058 2.15.261 2.912.558.79.307 1.459.717 2.126 1.384.6105.59958 1.0828 1.32512 1.384 2.126l.023.058c.28.74.473 1.587.532 2.805l.019.404c.044 1.01.056 1.626.056 4.4v.912c-.002 2.61-.018 3.05-.072 4.229-.058 1.277-.261 2.15-.558 2.912-.3012.8009-.7735 1.5264-1.384 2.126-.5996.6105-1.3251 1.0828-2.126 1.384l-.058.023c-.74.28-1.587.473-2.805.532l-.404.019c-1.01.044-1.626.056-4.4.056h-.912c-2.61-.002-3.05-.018-4.229-.072-1.277-.058-2.15-.261-2.912-.558-.80088-.3012-1.52642-.7735-2.126-1.384-.61048-.5996-1.08279-1.3251-1.384-2.126l-.023-.058c-.28-.74-.473-1.587-.533-2.805l-.016-.367c-.045-1.02-.058-1.616-.058-4.344v-1.003c.002-2.612.018-3.051.072-4.23.058-1.261.256-2.128.547-2.884l.011-.03c.30133-.80054.77364-1.52572 1.384-2.125.59956-.61048 1.3251-1.08279 2.126-1.384l.058-.023c.74-.28 1.587-.473 2.805-.533l.367-.016c1.02-.045 1.616-.058 4.344-.058zm.91 2.162h-1.248c-2.304.002-2.908.013-3.81.052l-.415.018c-1.17.053-1.805.249-2.228.413-.56.218-.96.478-1.38.898-.411.411-.67.803-.884 1.345l-.024.062c-.162.423-.35 1.056-.403 2.2l-.02.45c-.038.905-.049 1.53-.05 3.945v1.08c.002 2.636.016 3.046.07 4.224l.004.074c.058 1.123.248 1.74.41 2.154.217.56.477.96.897 1.38.411.411.803.67 1.345.884l.062.024c.423.162 1.056.35 2.2.403l.45.02c.904.038 1.53.049 3.945.05h1.08c2.636-.002 3.046-.016 4.224-.07l.074-.004c1.123-.058 1.74-.248 2.154-.41.5214-.1919.993-.4984 1.38-.897.411-.411.67-.803.884-1.345l.024-.062c.162-.423.35-1.056.403-2.201l.02-.448c.038-.906.049-1.531.05-3.946v-1.08c-.002-2.636-.016-3.046-.07-4.224l-.004-.074c-.058-1.123-.248-1.74-.41-2.154-.1921-.52125-.4986-.99281-.897-1.38-.3781-.38966-.8373-.69145-1.345-.884l-.062-.024c-.418-.16-1.042-.347-2.164-.401l-.453-.02c-.901-.04-1.505-.05-3.809-.052zm-.624 3.676c.8092 0 1.6105.15939 2.3581.4691.7476.3096 1.4269.7635 1.9991 1.3357s1.0261 1.2515 1.3357 1.9991c.3097.7476.4691 1.5489.4691 2.3581s-.1594 1.6105-.4691 2.3581c-.3096.7476-.7635 1.4269-1.3357 1.9991s-1.2515 1.0261-1.9991 1.3357c-.7476.3097-1.5489.4691-2.3581.4691-1.6343 0-3.2016-.6492-4.3572-1.8048s-1.8048-2.7229-1.8048-4.3572.6492-3.2016 1.8048-4.3572 2.7229-1.8048 4.3572-1.8048zm0 2.162c-1.0609 0-2.0783.4214-2.8284 1.1716-.7502.7501-1.1716 1.7675-1.1716 2.8284s.4214 2.0783 1.1716 2.8284c.7501.7502 1.7675 1.1716 2.8284 1.1716s2.0783-.4214 2.8284-1.1716c.7502-.7501 1.1716-1.7675 1.1716-2.8284s-.4214-2.0783-1.1716-2.8284c-.7501-.7502-1.7675-1.1716-2.8284-1.1716zm6.406-3.846c.1891 0 .3764.03725.5511.10961.1747.07237.3334.17844.4671.31216.1338.13371.2398.29246.3122.46717.0724.1747.1096.36196.1096.55106s-.0372.37636-.1096.5511c-.0724.1747-.1784.3334-.3122.4671-.1337.1338-.2924.2398-.4671.3122s-.362.1096-.5511.1096c-.3819 0-.7482-.1517-1.0182-.4218-.2701-.27-.4218-.63629-.4218-1.0182s.1517-.74818.4218-1.01823c.27-.27006.6363-.42177 1.0182-.42177z" fill="#fff"></path></svg>