<svg viewBox="0 0 32 32" xmlns="http://www.w3.org/2000/svg" aria-label="Navigate to Twitter" role="img" focusable="false" style="display: block; height: 18px; width: 18px; fill: currentcolor;"><path d="m32 4v24c0 2.209139-1.790861 4-4 4h-24c-2.209139 0-4-1.790861-4-4v-24c0-2.209139 1.790861-4 4-4h24c2.209139 0 4 1.790861 4 4z"></path><path d="m18.664 7.985c-.8591.45781-1.5466 1.18188-1.9594 2.0636-.4127.8817-.5283 1.8734-.3296 2.8264-3.5-.188-6.875-1.813-9.063-4.625-.29765.47541-.49825 1.00504-.59024 1.55834-.09199.55336-.07354 1.11936.05428 1.66546.12782.5462.36249 1.0616.69047 1.5166.32797.4551.74278.8407 1.22049 1.1346-.687 0-1.374-.125-2-.438.063 2.063 1.5 3.876 3.5 4.313-.624.188-1.312.188-2 .063.626 1.812 2.313 3.062 4.188 3.125-1.813 1.5-4.25 2.187-6.563 1.812 1.93253 1.2895 4.18757 2.0119 6.5096 2.0855 2.3221.0736 4.6184-.5047 6.6286-1.6692 2.0103-1.1646 3.6543-2.8689 4.7456-4.9198 1.0913-2.051 1.5864-4.3666 1.4292-6.6845.875-.624 1.625-1.374 2.188-2.312-.75.375-1.625.625-2.5.75.937-.563 1.625-1.438 2-2.5-.875.5-1.813.875-2.813 1.063-.6801-.6967-1.5679-1.15401-2.53-1.3033-.9621-.1493-1.9467.01748-2.806.4753z" fill="#fff"></path></svg>